# xmcd
#
# Track frame offsets: 
#        150
#        8014
#        8737
#        12944
#        15888
#        25899
#        32768
#        39551
#        52602
#        54655
#        55434
#        76069
#        85154
#        87071
#        90979
#        107973
#        125741
#        150715
#        152362
#        162227
#        166210
#        234430
#        239428
#        275503
#        280586
#        288391
#        301022
#        306939
#        308990
#
# Disc length: 4662 seconds
#
# Revision: 0
# Processed by: cddbd v1.5.2PL0 Copyright (c) Steve Scherf et al.
# Submitted via: ExactAudioCopy v0.95b4
#
DISCID=5512341d
DTITLE=The Beatles  - AB  Road - Complete Purple Chick Set v1.1 Jan.03
DTITLE=Various Artist - D4  FLAC
DYEAR=1900
DGENRE=
TTITLE0=All Things Must Pass 3.124
TTITLE1=Unknown 3.125
TTITLE2=Back In The USSR 3.126
TTITLE3=Every Little Thing 3.127
TTITLE4=Piece Of My Heart 3.128
TTITLE5=Sabre Dance 3.129
TTITLE6=Piece Of My Heart 3.130
TTITLE7=Over Nad Over Again 3.131
TTITLE8=One After 909 3.132
TTITLE9=Slate Announcement
TTITLE10=Dialogue
TTITLE11=I've Been Good To You 3.133
TTITLE12=All Things Must Pass 3.134
TTITLE13=All Things Must Pass 3.135
TTITLE14=All Things Must Pass 3.136
TTITLE15=All Things Must Pass 3.137
TTITLE16=All Things Must Pass 3.138
TTITLE17=All Things Must Pass 3.139
TTITLE18=All Things Must Pass 3.140
TTITLE19=Maxwell's Silver Hammer 3.141
TTITLE20=Maxwell's Silver Hammer 3.142
TTITLE21=Maxwell's Silver Hammer 3.143
TTITLE22=Maxwell's Silver Hammer 3.144
TTITLE23=Maxwell's Silver Hammer 3.145
TTITLE24=Maxwell's Silver Hammer 3.146
TTITLE25=Maxwell's Silver Hammer 3.147
TTITLE26=Maxwell's Silver Hammer 3.148
TTITLE27=Maxwell's Silver Hammer 3.149
TTITLE28=Maxwell's Silver Hammer 3.150
EXTD=
EXTT0=
EXTT1=
EXTT2=
EXTT3=
EXTT4=
EXTT5=
EXTT6=
EXTT7=
EXTT8=
EXTT9=
EXTT10=
EXTT11=
EXTT12=
EXTT13=
EXTT14=
EXTT15=
EXTT16=
EXTT17=
EXTT18=
EXTT19=
EXTT20=
EXTT21=
EXTT22=
EXTT23=
EXTT24=
EXTT25=
EXTT26=
EXTT27=
EXTT28=
PLAYORDER=
